# This file uses centimeters as units for non-parametric coordinates.

mtllib arrow.mtl
g default
v -0.509012 0.003291 0.043006
v -0.509012 0.748652 5.702576
v -0.509012 0.136347 0.025483
v -0.509012 0.881709 5.685052
v 0.509012 0.136347 0.025483
v 0.509012 0.881709 5.685052
v 0.509012 0.003291 0.043006
v 0.509012 0.748652 5.702576
v 1.710042 0.748652 5.702576
v -1.710042 0.748652 5.702576
v 1.710042 0.881709 5.685052
v -1.710042 0.881709 5.685052
v -0.000000 0.990350 7.537798
v -0.000000 1.123406 7.520275
vt 0.699362 0.774348
vt 0.699362 0.501943
vt 0.699362 0.501943
vt 0.699362 0.774348
vt 0.001939 0.822883
vt 0.110050 0.001992
vt 0.129349 0.004534
vt 0.021238 0.825425
vt 0.425212 0.822883
vt 0.425212 0.001992
vt 0.572871 0.001992
vt 0.572871 0.822883
vt 0.156132 0.001992
vt 0.264243 0.822883
vt 0.244943 0.825425
vt 0.136833 0.004534
vt 0.419195 0.001992
vt 0.419195 0.822883
vt 0.271536 0.822883
vt 0.271536 0.001992
vt 0.582518 0.826768
vt 0.582518 0.974428
vt 0.563219 0.974428
vt 0.563219 0.826768
vt 0.578888 0.323854
vt 0.578888 0.176195
vt 0.578888 0.001992
vt 0.578888 0.498057
vt 0.633061 0.676146
vt 0.613762 0.676146
vt 0.613762 0.501943
vt 0.633061 0.501943
vt 0.588490 0.501943
vt 0.607790 0.501943
vt 0.607790 0.676146
vt 0.588490 0.676146
vt 0.586477 0.498057
vt 0.586477 0.001992
vt 0.852666 0.250025
vt 0.971524 0.501943
vt 0.971524 0.998008
vt 0.705335 0.749975
vt 0.639034 0.504485
vt 0.658333 0.501943
vt 0.693390 0.768132
vt 0.674091 0.770674
vt 0.658333 0.501943
vt 0.639034 0.504485
vn -1.000000 0.000000 0.000000
vn -1.000000 0.000000 0.000000
vn -1.000000 0.000000 0.000000
vn -1.000000 0.000000 0.000000
vn 0.000000 0.991439 -0.130572
vn 0.000000 0.991439 -0.130572
vn 0.000000 0.991439 -0.130572
vn 0.000000 0.991439 -0.130572
vn 1.000000 0.000000 0.000000
vn 1.000000 0.000000 0.000000
vn 1.000000 0.000000 0.000000
vn 1.000000 0.000000 0.000000
vn 0.000000 -0.991439 0.130572
vn 0.000000 -0.991439 0.130572
vn 0.000000 -0.991439 0.130572
vn 0.000000 -0.991439 0.130572
vn 0.000000 -0.130572 -0.991439
vn 0.000000 -0.130572 -0.991439
vn 0.000000 -0.130572 -0.991439
vn 0.000000 -0.130572 -0.991439
vn 0.000000 0.000000 1.000000
vn 0.000000 0.000000 1.000000
vn 0.000000 0.000000 1.000000
vn 0.000000 0.000000 1.000000
vn 0.000000 -0.130574 -0.991439
vn 0.000000 -0.130574 -0.991439
vn 0.000000 -0.130574 -0.991439
vn 0.000000 -0.130574 -0.991439
vn 0.000000 0.000000 0.000000
vn 0.000000 0.000000 0.000000
vn 0.000000 0.000000 0.000000
vn 0.000000 0.000000 0.000000
vn 0.000000 -0.130574 -0.991439
vn 0.000000 -0.130574 -0.991439
vn 0.000000 -0.130574 -0.991439
vn 0.000000 -0.130574 -0.991439
vn 0.000000 -0.991439 0.130572
vn 0.000000 -0.991439 0.130572
vn 0.000000 -0.991439 0.130572
vn 0.734534 0.088604 0.672763
vn 0.734534 0.088604 0.672763
vn 0.734534 0.088604 0.672763
vn 0.734534 0.088604 0.672763
vn 0.000000 0.991439 -0.130572
vn 0.000000 0.991439 -0.130572
vn 0.000000 0.991439 -0.130572
vn -0.734534 0.088604 0.672763
vn -0.734534 0.088604 0.672763
vn -0.734534 0.088604 0.672763
vn -0.734534 0.088604 0.672763
s off
g pCube1
usemtl initialShadingGroup
f 1/5/1 2/6/2 4/7/3 3/8/4
f 3/9/5 4/10/6 6/11/7 5/12/8
f 5/13/9 6/14/10 8/15/11 7/16/12
f 7/17/13 8/18/14 2/19/15 1/20/16
f 7/21/17 1/22/18 3/23/19 5/24/20
f 2/25/21 8/26/22 9/27/23 10/28/24
f 8/29/25 6/30/26 11/31/27 9/32/28
f 6/2/29 4/1/30 12/4/31 11/3/32
f 4/33/33 2/34/34 10/35/35 12/36/36
f 10/37/37 9/38/38 13/39/39
f 9/43/40 11/44/41 14/45/42 13/46/43
f 11/40/44 12/41/45 14/42/46
f 12/47/47 10/48/48 13/46/49 14/45/50
